PathFileType	3	(X/Y/Z)	D:\minhoCalibration\240510\subject1_KPNP\preferred\preferred02.trc
DataRate	CameraRate	NumFrames	NumMarkers	Units	OrigDataRate	OrigDataStartFrame	OrigNumFrames
200.0	200.0	21	10	mm	200.0	263	236	
Frame#	Time	Left_Ankle_Outer1			Left_Ankle_Inner1			Left_Knee_Outer1			Left_Knee_Inner1			Left_Wrist1			Right_Wrist1			Right_Knee_Inner1			Right_Knee_Outer1			Right_Ankle_Inner1			Right_Ankle_Outer1			
		X1	Y1	Z1	X2	Y2	Z2	X3	Y3	Z3	X4	Y4	Z4	X5	Y5	Z5	X6	Y6	Z6	X7	Y7	Z7	X8	Y8	Z8	X9	Y9	Z9	X10	Y10	Z10	
263	1.305	-505.4838	139.65099	-558.1142	-547.3327	150.03096	-520.32629	-354.80435	556.81403	-441.48724	-453.34729	538.63623	-397.36261	-391.22919	983.23724	-662.24933	-609.96979	1185.7666	-444.54688	-289.33536	1048.9501	-139.92735	-365.79788	1128.7002	-124.13606	-397.90884	954.10889	295.17548	-443.56906	1036.1011	317.54211
264	1.31	-504.82767	140.14174	-557.65845	-546.90509	150.23923	-520.03857	-355.52249	557.57068	-438.85562	-454.9082	539.01868	-395.86786	-389.4433	983.90576	-659.08466	-613.38074	1183.6509	-443.8053	-289.46927	1046.0677	-138.81819	-370.02661	1124.5957	-121.174	-402.25436	939.61206	291.71585	-452.10138	1018.3089	315.01578
265	1.315	-504.58133	140.63461	-557.19788	-546.92273	150.8578	-520.12048	-356.0658	558.25171	-436.83386	-455.82629	539.53156	-394.89178	-387.56613	984.86951	-656.38629	-616.6933	1181.2469	-443.01505	-290.64755	1041.576	-138.25848	-373.53082	1120.2255	-117.76125	-405.96198	925.18921	288.12286	-460.37872	999.98578	312.35132
266	1.32	-504.56094	141.04019	-556.89075	-547.00861	151.1646	-519.86023	-356.61911	558.7019	-435.32391	-456.62827	539.62793	-394.42471	-385.50024	986.09229	-653.94666	-619.70459	1178.7908	-442.69693	-294.48257	1036.0684	-135.84749	-376.09525	1115.6223	-113.95679	-411.06729	908.75623	284.15744	-468.15863	981.46191	309.23389
267	1.325	-504.59946	141.44527	-556.9743	-547.17993	151.34837	-519.72272	-356.94342	559.01337	-434.41092	-457.03284	539.96161	-394.11264	-383.53168	987.27325	-651.46893	-622.63727	1176.3325	-442.63559	-297.28702	1030.697	-134.78424	-377.80505	1110.6667	-110.25323	-416.61963	892.49823	279.67862	-475.55228	962.9577	305.60519
268	1.33	-504.78821	141.65674	-556.87408	-547.38544	151.47371	-519.61084	-357.22318	559.10571	-433.87759	-457.69037	539.95947	-393.7644	-380.99683	988.87408	-649.26996	-625.24518	1173.561	-443.23907	-300.32483	1024.9924	-133.7326	-379.22485	1105.2804	-107.11126	-422.71497	875.25122	274.5517	-482.35895	944.3598	301.64572
269	1.335	-505.03857	141.61171	-556.86475	-547.53491	151.3873	-519.46313	-357.36258	559.05212	-433.68738	-457.64383	539.95428	-393.96069	-379.28769	989.86444	-646.54407	-628.08899	1170.7102	-443.82104	-303.50317	1019.062	-132.79236	-381.00317	1099.4125	-104.76147	-428.30548	858.67688	268.90686	-489.61755	926.12427	297.34784
270	1.34	-505.10095	141.43997	-556.96973	-547.67847	151.42133	-519.80902	-357.45621	558.78564	-433.82001	-457.70993	539.71686	-394.23038	-377.03894	991.0155	-644.302	-630.20087	1167.6445	-445.29922	-306.99631	1012.9464	-131.91034	-383.90796	1093.2339	-103.01072	-435.60159	841.64532	263.75751	-497.05945	907.76782	292.7099
271	1.345	-505.01437	141.23912	-557.31226	-547.7207	151.21428	-520.19354	-357.39523	558.43408	-434.23965	-457.70862	539.59216	-394.42203	-374.91718	992.05896	-642.11969	-633.26135	1164.9932	-445.51578	-310.75784	1006.6714	-131.23671	-387.55865	1086.7092	-102.08121	-442.42688	824.35968	257.65707	-504.59015	889.2287	287.6662
272	1.35	-504.98105	140.70152	-557.34644	-547.73132	150.87137	-520.75995	-358.04901	557.62573	-434.62918	-457.63025	539.0639	-395.01508	-372.86722	993.01904	-640.02618	-635.17383	1161.5806	-447.17801	-314.70944	1000.0826	-130.85858	-392.10687	1079.9358	-101.2708	-448.9899	806.77557	250.74744	-512.39917	870.68622	282.32056
273	1.355	-504.69559	140.18904	-557.92926	-547.4668	150.48869	-521.4325	-358.03909	557.27625	-435.43671	-457.90628	538.23065	-395.93475	-370.86694	993.88202	-637.98688	-637.65063	1158.4347	-448.01337	-319.12918	993.13434	-130.48625	-397.14868	1072.8372	-100.45011	-456.41968	789.10004	243.95937	-520.02698	851.64423	276.69681
274	1.36	-504.23575	139.8019	-559.00861	-547.27521	149.6172	-522.07928	-357.97437	556.76514	-436.49057	-457.60193	537.58893	-397.38773	-368.9574	994.68048	-636.03253	-640.14526	1155.6689	-448.61276	-323.69324	986.06116	-130.29529	-402.48831	1065.3409	-99.542297	-463.34494	771.19135	236.39592	-527.71765	832.25012	270.73648
275	1.365	-503.78229	139.02473	-559.90289	-547.08856	149.40147	-523.30206	-357.92706	556.26062	-437.70511	-457.82544	537.18774	-398.39462	-367.24384	995.38495	-634.18823	-642.24902	1152.9841	-449.73215	-328.52454	979.02063	-130.28763	-408.10172	1057.6819	-98.543976	-470.86465	752.46356	228.56551	-535.58704	812.62012	264.28964
276	1.37	-503.54123	137.93735	-560.48981	-546.93652	148.41241	-524.29327	-357.46567	555.9306	-439.21463	-457.86169	536.34344	-400.17215	-365.54797	995.96881	-632.52924	-645.0744	1150.3944	-450.05148	-333.58615	972.16827	-130.40154	-413.90878	1049.5012	-97.547089	-478.03799	733.97205	220.54961	-543.48834	792.58942	257.20276
277	1.375	-502.95197	137.25304	-561.83228	-546.30103	147.84682	-525.68823	-357.29968	555.33929	-440.68365	-457.61783	535.78217	-402.05115	-363.90582	996.52606	-631.05817	-646.98059	1147.4463	-451.42065	-338.59497	965.60168	-130.75581	-420.20465	1041.1095	-96.499847	-485.85278	715.36682	212.45905	-551.41907	772.19537	249.52376
278	1.38	-502.51575	136.28613	-562.90497	-546.07733	146.94667	-526.94232	-357.17166	554.65356	-442.1658	-458.02301	534.78534	-403.94974	-362.2597	996.98877	-629.71912	-648.91864	1145.116	-452.19641	-343.75043	959.3183	-131.10765	-427.05783	1032.401	-95.489693	-493.207	696.97479	202.79913	-559.42596	751.47668	241.21103
279	1.385	-502.26343	135.11185	-563.71564	-546.03729	145.9776	-528.15564	-356.91635	553.86963	-443.7468	-458.05972	534.44666	-405.72818	-360.76639	997.39215	-628.47375	-650.39508	1142.2014	-453.48938	-348.90582	953.04419	-131.36444	-434.28925	1023.3458	-94.622681	-499.24911	678.07733	192.02754	-567.65582	730.63837	232.01175
280	1.39	-501.72156	134.14607	-565.15546	-545.50415	145.08144	-529.43073	-356.63675	553.13495	-445.35477	-458.09024	533.30963	-408.08276	-359.21765	997.74805	-627.31378	-651.62787	1139.3191	-454.75198	-354.12003	946.66565	-131.32394	-441.64996	1013.9334	-94.059685	-506.70306	658.39551	181.84299	-575.60809	709.50696	222.05988
281	1.395	-501.56134	132.75751	-566.06122	-545.20477	144.02043	-530.76367	-356.24524	552.26385	-447.10266	-458.13519	532.45496	-410.16776	-357.63553	998.01416	-626.20581	-652.7771	1136.3834	-455.99542	-359.39694	940.03326	-131.0015	-449.45917	1004.0039	-93.460884	-513.70001	639.90961	170.73148	-583.41333	687.98016	211.42183
282	1.4	-501.18936	131.88731	-567.53882	-545.04608	143.03841	-531.98138	-355.79471	551.31757	-448.90961	-458.03525	531.83472	-411.85559	-356.18631	998.1571	-625.02356	-653.64685	1133.3607	-457.35632	-364.72897	933.0116	-130.42979	-457.38589	993.86584	-92.98439	-519.83655	620.7558	158.65538	-591.58319	666.55786	199.73961
283	1.405	-501.02072	130.68892	-568.66968	-544.94617	141.98795	-533.2016	-355.26129	550.37042	-450.77258	-458.24796	530.57562	-414.10257	-354.68817	998.38092	-623.89746	-654.48083	1130.0538	-458.95676	-370.18228	925.51709	-129.56715	-465.27637	983.40436	-92.632217	-525.33698	601.82593	145.42146	-599.42865	644.92896	187.13683
